Coordinates
version=1
nRows=6
nColumns=36
inDegrees=yes

Units are S.I. units (second, meters, Newtons, ...)
If the header above contains a line with 'inDegrees', this indicates whether rotational values are in degrees (yes) or radians (no).

endheader
time	pelvis_tilt	pelvis_list	pelvis_rotation	pelvis_tx	pelvis_ty	pelvis_tz	hip_flexion_r	hip_adduction_r	hip_rotation_r	knee_angle_r	knee_angle_r_beta	ankle_angle_r	subtalar_angle_r	mtp_angle_r	hip_flexion_l	hip_adduction_l	hip_rotation_l	knee_angle_l	knee_angle_l_beta	ankle_angle_l	subtalar_angle_l	mtp_angle_l	lumbar_extension	lumbar_bending	lumbar_rotation	arm_flex_r	arm_add_r	arm_rot_r	elbow_flex_r	pro_sup_r	arm_flex_l	arm_add_l	arm_rot_l	elbow_flex_l	pro_sup_l
      0.00000000	      1.22078135	     -0.03002356	     -7.38168078	      0.33693689	      0.93711599	     -0.00352080	     -4.26241055	     -1.33315428	    -16.45407444	      4.83179877	      0.08433080	     -9.47039140	    -29.65800549	     -5.57417137	     -1.92066695	     -6.88103194	     -3.30897545	      6.62801452	      0.11568068	      0.42896958	    -10.68629545	     -5.57417137	     -6.28684810	      1.85796734	      2.15148945	      0.40073598	    -10.38610005	      9.41734047	     88.86565885	     90.43330399	     -0.37537326	     -5.03664391	     11.12071041	     87.21889418	     92.47135422
      0.01666670	      0.73862662	      0.32426386	     -6.65885688	      0.33650253	      0.93778564	     -0.01412306	     -3.21053759	     -1.88267815	    -19.01364048	      5.28681701	      0.09227236	     -7.12603842	    -30.28060890	     -5.60687318	     -1.28982321	     -6.07967887	     -2.07313313	      5.44484340	      0.09503044	      0.41579573	     -8.97813856	     -5.60687318	     -5.84548913	      2.61649594	      1.66319310	      0.64972478	    -10.92055754	      7.39557980	     90.29030034	     90.12941035	     -0.43659493	     -4.94997012	      9.68637583	     88.04180971	     91.93486696
      0.03333330	      0.27414183	      0.41888905	     -6.10371758	      0.33149013	      0.93661854	     -0.01882353	     -2.44148402	     -2.12378008	    -20.98922374	      5.18328090	      0.09046532	     -6.65732042	    -30.47790342	     -6.35465398	     -0.56993696	     -5.87764182	     -1.64394767	      4.92886726	      0.08602496	      1.02796777	     -7.36324371	     -6.35465398	     -6.03213154	      2.42035446	      1.94207928	      1.03275183	    -11.26043194	      6.45786919	     90.33870961	     88.86366285	      1.03089085	     -5.32647836	      8.99038474	     87.88047703	     85.62364934
      0.05000000	      0.69855915	      0.64859052	     -5.06572469	      0.33475088	      0.93697560	     -0.03338598	     -3.02534195	     -3.13854635	    -22.23901973	      5.32293706	      0.09290278	     -6.61835028	    -30.40766117	     -6.48424768	     -1.12628767	     -5.05936367	     -0.70969615	      4.18045758	      0.07296275	      0.84813637	     -7.22618473	     -6.48424768	     -6.59338654	      2.45407638	      2.03973640	      0.80068660	    -11.83104302	      5.63113813	     90.67974732	     88.08433733	      1.70394270	     -5.03836761	      7.97050637	     87.82816825	     84.38417420
      0.06666670	      0.90598268	      0.68051769	     -4.21966098	      0.34235109	      0.93688117	     -0.04313761	     -3.50551203	     -3.73994064	    -22.97199853	      5.37244036	      0.09376677	     -5.95224982	    -30.40210767	     -6.50902586	     -1.66797753	     -4.49262151	      0.08886652	      3.65888328	      0.06385956	      1.13783822	     -7.23004531	     -6.50902586	     -6.72442852	      2.75343505	      1.74889450	      0.09188281	    -12.26470562	      4.53734469	     91.98251620	     88.36390773	      1.75240186	     -4.89383779	      7.68432864	     88.80187209	     84.75886224
      0.08333330	      1.13109885	      0.73761142	     -3.51131938	      0.34168096	      0.93472677	     -0.05206040	     -3.80129318	     -4.30183739	    -23.12361116	      5.82636743	      0.10168930	     -5.45670655	    -30.64778353	     -6.51747058	     -2.10503139	     -3.86101374	      0.88283456	      3.37840187	      0.05896424	      1.55357264	     -7.38868861	     -6.51747058	     -6.46691578	      2.98639713	      1.49387540	     -0.16407216	    -12.88926807	      3.76399958	     92.65365878	     88.42364648	      1.71004218	     -4.69364099	      7.92263917	     89.74656022	     84.96242462
